<?xml version="1.0" encoding="UTF-8" standalone="no"?>
<!DOCTYPE svg PUBLIC "-//W3C//DTD SVG 1.1//EN" "http://www.w3.org/Graphics/SVG/1.1/DTD/svg11.dtd">
<!-- 由 Microsoft Visio, SVG Export 生成 em.svg Page-1 -->
<svg xmlns="http://www.w3.org/2000/svg" xmlns:xlink="http://www.w3.org/1999/xlink" xmlns:ev="http://www.w3.org/2001/xml-events"
		xmlns:v="http://schemas.microsoft.com/visio/2003/SVGExtensions/" width="7.96974in" height="8.46777in"
		viewBox="0 0 573.821 609.679" xml:space="preserve" color-interpolation-filters="sRGB" class="st9">
	<v:documentProperties v:langID="2052" v:metric="true" v:viewMarkup="false">
		<v:userDefs>
			<v:ud v:nameU="msvSubprocessMaster" v:prompt="" v:val="VT4(Rectangle)"/>
			<v:ud v:nameU="msvNoAutoConnect" v:val="VT0(1):26"/>
		</v:userDefs>
	</v:documentProperties>

	<style type="text/css">
	<![CDATA[
		.st1 {visibility:visible}
		.st2 {fill:#a5a5a5;fill-opacity:0.6;filter:url(#filter_2);stroke:#a5a5a5;stroke-linecap:round;stroke-linejoin:round;stroke-opacity:0.6}
		.st3 {fill:#e2e6da;stroke:#82982a;stroke-linecap:round;stroke-linejoin:round;stroke-opacity:0.6;stroke-width:0.75}
		.st4 {fill:#000000;font-family:微软雅黑;font-size:1.00001em}
		.st5 {font-size:1em}
		.st6 {marker-end:url(#mrkr4-37);stroke:#82982a;stroke-linecap:round;stroke-linejoin:round;stroke-width:1}
		.st7 {fill:#82982a;fill-opacity:1;stroke:#82982a;stroke-opacity:1;stroke-width:0.28409090909091}
		.st8 {font-family:Microsoft Sans Serif;font-size:1em}
		.st9 {fill:none;fill-rule:evenodd;font-size:12px;overflow:visible;stroke-linecap:square;stroke-miterlimit:3}
	]]>
	</style>

	<defs id="Markers">
		<g id="lend4">
			<path d="M 2 1 L 0 0 L 2 -1 L 2 1 " style="stroke:none"/>
		</g>
		<marker id="mrkr4-37" class="st7" v:arrowType="4" v:arrowSize="2" v:setback="7.04" refX="-7.04" orient="auto"
				markerUnits="strokeWidth" overflow="visible">
			<use xlink:href="#lend4" transform="scale(-3.52,-3.52) "/>
		</marker>
	</defs>
	<defs id="Filters">
		<filter id="filter_2">
			<feGaussianBlur stdDeviation="2"/>
		</filter>
	</defs>
	<g v:mID="0" v:index="1" v:groupContext="foregroundPage">
		<v:userDefs>
			<v:ud v:nameU="msvThemeOrder" v:val="VT0(0):26"/>
		</v:userDefs>
		<title>页-1</title>
		<v:pageProperties v:drawingScale="0.0393701" v:pageScale="0.0393701" v:drawingUnits="24" v:shadowOffsetX="8.50394"
				v:shadowOffsetY="-8.50394"/>
		<v:layer v:name="连接线" v:index="0"/>
		<g id="shape44-1" v:mID="44" v:groupContext="shape" transform="translate(261.482,-561.959)">
			<title>矩形</title>
			<desc>电气故障</desc>
			<v:userDefs>
				<v:ud v:nameU="visVersion" v:val="VT0(15):26"/>
			</v:userDefs>
			<v:textBlock v:margins="rect(4,4,4,4)" v:tabSpace="42.5197"/>
			<v:textRect cx="56.6929" cy="595.506" width="113.39" height="28.3465"/>
			<g id="shadow44-2" v:groupContext="shadow" v:shadowOffsetX="1.22561E-16" v:shadowOffsetY="-2.00157" v:shadowType="1"
					transform="matrix(1,0,0,1,0,2.00157)" class="st1">
				<rect x="0" y="581.333" width="113.386" height="28.3465" class="st2"/>
			</g>
			<rect x="0" y="581.333" width="113.386" height="28.3465" class="st3"/>
			<text x="32.69" y="599.16" class="st4" v:langID="2052"><v:paragraph v:horizAlign="1"/><v:tabList/>电气故障</text>		</g>
		<g id="shape45-7" v:mID="45" v:groupContext="shape" transform="translate(84.7297,-490.739)">
			<title>矩形.2</title>
			<desc>绝缘故障</desc>
			<v:userDefs>
				<v:ud v:nameU="visVersion" v:val="VT0(15):26"/>
			</v:userDefs>
			<v:textBlock v:margins="rect(4,4,4,4)" v:tabSpace="42.5197"/>
			<v:textRect cx="56.6929" cy="595.506" width="113.39" height="28.3465"/>
			<g id="shadow45-8" v:groupContext="shadow" v:shadowOffsetX="1.22561E-16" v:shadowOffsetY="-2.00157" v:shadowType="1"
					transform="matrix(1,0,0,1,0,2.00157)" class="st1">
				<rect x="0" y="581.333" width="113.386" height="28.3465" class="st2"/>
			</g>
			<rect x="0" y="581.333" width="113.386" height="28.3465" class="st3"/>
			<text x="32.69" y="599.16" class="st4" v:langID="2052"><v:paragraph v:horizAlign="1"/><v:tabList/>绝缘故障</text>		</g>
		<g id="shape46-13" v:mID="46" v:groupContext="shape" transform="translate(261.482,-493.928)">
			<title>矩形.3</title>
			<desc>载流故障</desc>
			<v:userDefs>
				<v:ud v:nameU="visVersion" v:val="VT0(15):26"/>
			</v:userDefs>
			<v:textBlock v:margins="rect(4,4,4,4)" v:tabSpace="42.5197"/>
			<v:textRect cx="56.6929" cy="595.506" width="113.39" height="28.3465"/>
			<g id="shadow46-14" v:groupContext="shadow" v:shadowOffsetX="1.22561E-16" v:shadowOffsetY="-2.00157" v:shadowType="1"
					transform="matrix(1,0,0,1,0,2.00157)" class="st1">
				<rect x="0" y="581.333" width="113.386" height="28.3465" class="st2"/>
			</g>
			<rect x="0" y="581.333" width="113.386" height="28.3465" class="st3"/>
			<text x="32.69" y="599.16" class="st4" v:langID="2052"><v:paragraph v:horizAlign="1"/><v:tabList/>载流故障</text>		</g>
		<g id="shape47-19" v:mID="47" v:groupContext="shape" transform="translate(424.474,-493.928)">
			<title>矩形.4</title>
			<desc>二次回路问题</desc>
			<v:userDefs>
				<v:ud v:nameU="visVersion" v:val="VT0(15):26"/>
			</v:userDefs>
			<v:textBlock v:margins="rect(4,4,4,4)" v:tabSpace="42.5197"/>
			<v:textRect cx="56.6929" cy="595.506" width="113.39" height="28.3465"/>
			<g id="shadow47-20" v:groupContext="shadow" v:shadowOffsetX="1.22561E-16" v:shadowOffsetY="-2.00157" v:shadowType="1"
					transform="matrix(1,0,0,1,0,2.00157)" class="st1">
				<rect x="0" y="581.333" width="113.386" height="28.3465" class="st2"/>
			</g>
			<rect x="0" y="581.333" width="113.386" height="28.3465" class="st3"/>
			<text x="20.69" y="599.16" class="st4" v:langID="2052"><v:paragraph v:horizAlign="1"/><v:tabList/>二次回路问题</text>		</g>
		<g id="shape48-25" v:mID="48" v:groupContext="shape" transform="translate(268.568,-398.258)">
			<title>矩形.13</title>
			<desc>触头接触不良过热或引线过热</desc>
			<v:userDefs>
				<v:ud v:nameU="visVersion" v:val="VT0(15):26"/>
			</v:userDefs>
			<v:textBlock v:margins="rect(4,4,4,4)" v:tabSpace="42.5197"/>
			<v:textRect cx="49.6063" cy="584.876" width="99.22" height="49.6063"/>
			<g id="shadow48-26" v:groupContext="shadow" v:shadowOffsetX="1.22561E-16" v:shadowOffsetY="-2.00157" v:shadowType="1"
					transform="matrix(1,0,0,1,0,2.00157)" class="st1">
				<rect x="0" y="560.073" width="99.2126" height="49.6063" class="st2"/>
			</g>
			<rect x="0" y="560.073" width="99.2126" height="49.6063" class="st3"/>
			<text x="7.61" y="581.18" class="st4" v:langID="2052"><v:paragraph v:horizAlign="1"/><v:tabList/>触头接触不良过<tspan
						x="13.61" dy="1.212em" class="st5">热或引线过热</tspan></text>		</g>
		<g id="shape49-32" v:mID="49" v:groupContext="shape" v:layerMember="0" transform="translate(318.175,-561.959)">
			<title>动态连接线</title>
			<path d="M0 609.68 L0 620.31 L-176.75 620.31 L-176.75 645.51" class="st6"/>
		</g>
		<g id="shape50-38" v:mID="50" v:groupContext="shape" v:layerMember="0" transform="translate(311.088,-561.959)">
			<title>动态连接线.15</title>
			<path d="M7.09 609.68 L7.09 642.32" class="st6"/>
		</g>
		<g id="shape51-43" v:mID="51" v:groupContext="shape" v:layerMember="0" transform="translate(318.175,-561.959)">
			<title>动态连接线.16</title>
			<path d="M0 609.68 L0 620.31 L162.99 620.31 L162.99 642.32" class="st6"/>
		</g>
		<g id="shape52-48" v:mID="52" v:groupContext="shape" v:layerMember="0" transform="translate(141.423,-490.739)">
			<title>动态连接线.21</title>
			<path d="M0 609.68 L0 623.5 L-103.42 623.5 L-103.42 692.56 L-64.56 692.56" class="st6"/>
		</g>
		<g id="shape53-53" v:mID="53" v:groupContext="shape" v:layerMember="0" transform="translate(141.423,-490.739)">
			<title>动态连接线.22</title>
			<path d="M0 609.68 L0 623.5 L-103.42 623.5 L-103.42 761.3 L-64.56 761.3" class="st6"/>
		</g>
		<g id="shape54-58" v:mID="54" v:groupContext="shape" v:layerMember="0" transform="translate(141.423,-490.739)">
			<title>动态连接线.23</title>
			<path d="M0 609.68 L0 623.5 L-103.42 623.5 L-103.42 830.04 L-64.56 830.04" class="st6"/>
		</g>
		<g id="shape55-63" v:mID="55" v:groupContext="shape" v:layerMember="0" transform="translate(311.088,-493.928)">
			<title>动态连接线.25</title>
			<path d="M7.09 609.68 L7.09 648.7" class="st6"/>
		</g>
		<g id="shape56-68" v:mID="56" v:groupContext="shape" transform="translate(83.903,-381.997)">
			<title>矩形.40</title>
			<desc>绝缘拉杆击穿</desc>
			<v:userDefs>
				<v:ud v:nameU="visVersion" v:val="VT0(15):26"/>
			</v:userDefs>
			<v:textBlock v:margins="rect(4,4,4,4)" v:tabSpace="42.5197"/>
			<v:textRect cx="56.6929" cy="583.813" width="113.39" height="51.7323"/>
			<g id="shadow56-69" v:groupContext="shadow" v:shadowOffsetX="1.22561E-16" v:shadowOffsetY="-2.00157" v:shadowType="1"
					transform="matrix(1,0,0,1,0,2.00157)" class="st1">
				<rect x="0" y="557.947" width="113.386" height="51.7323" class="st2"/>
			</g>
			<rect x="0" y="557.947" width="113.386" height="51.7323" class="st3"/>
			<text x="20.69" y="587.46" class="st4" v:langID="2052"><v:paragraph v:horizAlign="1"/><v:tabList/>绝缘拉杆击穿</text>		</g>
		<g id="shape57-74" v:mID="57" v:groupContext="shape" transform="translate(83.903,-313.256)">
			<title>矩形.41</title>
			<desc>过电压合闸电阻发生爆炸</desc>
			<v:userDefs>
				<v:ud v:nameU="visVersion" v:val="VT0(15):26"/>
			</v:userDefs>
			<v:textBlock v:margins="rect(4,4,4,4)" v:tabSpace="42.5197"/>
			<v:textRect cx="56.6929" cy="583.813" width="113.39" height="51.7323"/>
			<g id="shadow57-75" v:groupContext="shadow" v:shadowOffsetX="1.22561E-16" v:shadowOffsetY="-2.00157" v:shadowType="1"
					transform="matrix(1,0,0,1,0,2.00157)" class="st1">
				<rect x="0" y="557.947" width="113.386" height="51.7323" class="st2"/>
			</g>
			<rect x="0" y="557.947" width="113.386" height="51.7323" class="st3"/>
			<text x="8.69" y="580.12" class="st4" v:langID="2052"><v:paragraph v:horizAlign="1"/><v:tabList/>过电压合闸电阻发<tspan
						x="38.69" dy="1.212em" class="st5">生爆炸</tspan></text>		</g>
		<g id="shape58-81" v:mID="58" v:groupContext="shape" transform="translate(83.903,-244.516)">
			<title>矩形.42</title>
			<desc>开关发生灭弧室内绝缘闪络</desc>
			<v:userDefs>
				<v:ud v:nameU="visVersion" v:val="VT0(15):26"/>
			</v:userDefs>
			<v:textBlock v:margins="rect(4,4,4,4)" v:tabSpace="42.5197"/>
			<v:textRect cx="56.6929" cy="583.813" width="113.39" height="51.7323"/>
			<g id="shadow58-82" v:groupContext="shadow" v:shadowOffsetX="1.22561E-16" v:shadowOffsetY="-2.00157" v:shadowType="1"
					transform="matrix(1,0,0,1,0,2.00157)" class="st1">
				<rect x="0" y="557.947" width="113.386" height="51.7323" class="st2"/>
			</g>
			<rect x="0" y="557.947" width="113.386" height="51.7323" class="st3"/>
			<text x="8.69" y="580.12" class="st4" v:langID="2052"><v:paragraph v:horizAlign="1"/><v:tabList/>开关发生灭弧室内<tspan
						x="32.69" dy="1.212em" class="st5">绝缘闪络</tspan></text>		</g>
		<g id="shape59-88" v:mID="59" v:groupContext="shape" transform="translate(83.903,-175.776)">
			<title>矩形.43</title>
			<desc>外绝缘水平不够瓷套管爆炸</desc>
			<v:userDefs>
				<v:ud v:nameU="visVersion" v:val="VT0(15):26"/>
			</v:userDefs>
			<v:textBlock v:margins="rect(4,4,4,4)" v:tabSpace="42.5197"/>
			<v:textRect cx="56.6929" cy="583.813" width="113.39" height="51.7323"/>
			<g id="shadow59-89" v:groupContext="shadow" v:shadowOffsetX="1.22561E-16" v:shadowOffsetY="-2.00157" v:shadowType="1"
					transform="matrix(1,0,0,1,0,2.00157)" class="st1">
				<rect x="0" y="557.947" width="113.386" height="51.7323" class="st2"/>
			</g>
			<rect x="0" y="557.947" width="113.386" height="51.7323" class="st3"/>
			<text x="8.69" y="580.12" class="st4" v:langID="2052"><v:paragraph v:horizAlign="1"/><v:tabList/>外绝缘水平不够，<tspan
						x="26.69" dy="1.212em" class="st5">瓷套管爆炸</tspan></text>		</g>
		<g id="shape60-95" v:mID="60" v:groupContext="shape" transform="translate(83.903,-107.036)">
			<title>矩形.44</title>
			<desc>内部SF6气体微水含量严重超标</desc>
			<v:userDefs>
				<v:ud v:nameU="visVersion" v:val="VT0(15):26"/>
			</v:userDefs>
			<v:textBlock v:margins="rect(4,4,4,4)" v:tabSpace="42.5197"/>
			<v:textRect cx="56.6929" cy="583.813" width="113.39" height="51.7323"/>
			<g id="shadow60-96" v:groupContext="shadow" v:shadowOffsetX="1.22561E-16" v:shadowOffsetY="-2.00157" v:shadowType="1"
					transform="matrix(1,0,0,1,0,2.00157)" class="st1">
				<rect x="0" y="557.947" width="113.386" height="51.7323" class="st2"/>
			</g>
			<rect x="0" y="557.947" width="113.386" height="51.7323" class="st3"/>
			<text x="9.69" y="580.16" class="st4" v:langID="2052"><v:paragraph v:horizAlign="1"/><v:tabList/>内部<tspan class="st8">SF</tspan><tspan
						class="st8">6</tspan>气体微水<tspan x="20.69" dy="1.216em" class="st5">含量严重超标</tspan></text>		</g>
		<g id="shape61-104" v:mID="61" v:groupContext="shape" transform="translate(83.903,-23.3766)">
			<title>矩形.45</title>
			<desc>拉杆限位套管松脱拉杆移位断口接触不良引发灭弧室爆炸</desc>
			<v:userDefs>
				<v:ud v:nameU="visVersion" v:val="VT0(15):26"/>
			</v:userDefs>
			<v:textBlock v:margins="rect(4,4,4,4)" v:tabSpace="42.5197"/>
			<v:textRect cx="56.6929" cy="576.353" width="113.39" height="66.6515"/>
			<g id="shadow61-105" v:groupContext="shadow" v:shadowOffsetX="1.22561E-16" v:shadowOffsetY="-2.00157" v:shadowType="1"
					transform="matrix(1,0,0,1,0,2.00157)" class="st1">
				<rect x="0" y="543.028" width="113.386" height="66.6515" class="st2"/>
			</g>
			<rect x="0" y="543.028" width="113.386" height="66.6515" class="st3"/>
			<text x="14.69" y="558.26" class="st4" v:langID="2052"><v:paragraph v:horizAlign="1"/><v:tabList/>拉杆限位套管松<tspan
						x="8.69" dy="1.2em" class="st5">脱</tspan>，拉杆移位，断<tspan x="8.69" dy="1.2em" class="st5">口接触不良</tspan>，引发<tspan
						x="26.69" dy="1.212em" class="st5">灭弧室爆炸</tspan></text>		</g>
		<g id="shape62-113" v:mID="62" v:groupContext="shape" transform="translate(268.568,-309.676)">
			<title>矩形.113</title>
			<desc>装配过程没有使动、静触头对准或对准过大</desc>
			<v:userDefs>
				<v:ud v:nameU="visVersion" v:val="VT0(15):26"/>
			</v:userDefs>
			<v:textBlock v:margins="rect(4,4,4,4)" v:tabSpace="42.5197"/>
			<v:textRect cx="49.6063" cy="580.121" width="99.22" height="59.1173"/>
			<g id="shadow62-114" v:groupContext="shadow" v:shadowOffsetX="1.22561E-16" v:shadowOffsetY="-2.00157" v:shadowType="1"
					transform="matrix(1,0,0,1,0,2.00157)" class="st1">
				<rect x="0" y="550.562" width="99.2126" height="59.1173" class="st2"/>
			</g>
			<rect x="0" y="550.562" width="99.2126" height="59.1173" class="st3"/>
			<text x="7.61" y="569.22" class="st4" v:langID="2052"><v:paragraph v:horizAlign="1"/><v:tabList/>装配过程没有使<tspan x="7.61"
						dy="1.2em" class="st5">动</tspan>、静触头对准<tspan x="19.61" dy="1.212em" class="st5">或对准过大</tspan></text>		</g>
		<g id="shape63-121" v:mID="63" v:groupContext="shape" transform="translate(268.568,-233.14)">
			<title>矩形.114</title>
			<desc>操作过程中灭弧室口与静触头碰撞导致喷口断裂</desc>
			<v:userDefs>
				<v:ud v:nameU="visVersion" v:val="VT0(15):26"/>
			</v:userDefs>
			<v:textBlock v:margins="rect(4,4,4,4)" v:tabSpace="42.5197"/>
			<v:textRect cx="49.6063" cy="587.207" width="99.22" height="44.9441"/>
			<g id="shadow63-122" v:groupContext="shadow" v:shadowOffsetX="1.22561E-16" v:shadowOffsetY="-2.00157" v:shadowType="1"
					transform="matrix(1,0,0,1,0,2.00157)" class="st1">
				<rect x="0" y="564.735" width="99.2126" height="44.9441" class="st2"/>
			</g>
			<rect x="0" y="564.735" width="99.2126" height="44.9441" class="st3"/>
			<text x="7.61" y="576.31" class="st4" v:langID="2052"><v:paragraph v:horizAlign="1"/><v:tabList/>操作过程中灭弧<tspan x="7.61"
						dy="1.2em" class="st5">室口与静触头碰</tspan><tspan x="7.61" dy="1.212em" class="st5">撞导致喷口断裂</tspan></text>		</g>
		<g id="shape64-129" v:mID="64" v:groupContext="shape" v:layerMember="0" transform="translate(318.175,-398.258)">
			<title>动态连接线.117</title>
			<path d="M0 609.68 L0 632.06 L-73.98 632.06 L-73.98 752.33 L-56.65 752.33" class="st6"/>
		</g>
		<g id="shape65-134" v:mID="65" v:groupContext="shape" v:layerMember="0" transform="translate(318.175,-398.258)">
			<title>动态连接线.118</title>
			<path d="M0 609.68 L0 632.06 L-73.98 632.06 L-73.98 668.7 L-56.65 668.7" class="st6"/>
		</g>
		<g id="shape66-139" v:mID="66" v:groupContext="shape" transform="translate(438.647,-418.306)">
			<title>矩形.120</title>
			<desc>断路器合闸熔断器被熔断或接触不良</desc>
			<v:userDefs>
				<v:ud v:nameU="visVersion" v:val="VT0(15):26"/>
			</v:userDefs>
			<v:textBlock v:margins="rect(4,4,4,4)" v:tabSpace="42.5197"/>
			<v:textRect cx="56.6929" cy="592.065" width="113.39" height="35.2279"/>
			<g id="shadow66-140" v:groupContext="shadow" v:shadowOffsetX="1.22561E-16" v:shadowOffsetY="-2.00157" v:shadowType="1"
					transform="matrix(1,0,0,1,0,2.00157)" class="st1">
				<rect x="0" y="574.451" width="113.386" height="35.2279" class="st2"/>
			</g>
			<rect x="0" y="574.451" width="113.386" height="35.2279" class="st3"/>
			<text x="8.69" y="588.37" class="st4" v:langID="2052"><v:paragraph v:horizAlign="1"/><v:tabList/>断路器合闸熔断器<tspan
						x="8.69" dy="1.212em" class="st5">被熔断或接触不良</tspan></text>		</g>
		<g id="shape67-146" v:mID="67" v:groupContext="shape" transform="translate(438.647,-353.818)">
			<title>矩形.121</title>
			<desc>合闸母线电压过低</desc>
			<v:userDefs>
				<v:ud v:nameU="visVersion" v:val="VT0(15):26"/>
			</v:userDefs>
			<v:textBlock v:margins="rect(4,4,4,4)" v:tabSpace="42.5197"/>
			<v:textRect cx="56.6929" cy="592.065" width="113.39" height="35.2279"/>
			<g id="shadow67-147" v:groupContext="shadow" v:shadowOffsetX="1.22561E-16" v:shadowOffsetY="-2.00157" v:shadowType="1"
					transform="matrix(1,0,0,1,0,2.00157)" class="st1">
				<rect x="0" y="574.451" width="113.386" height="35.2279" class="st2"/>
			</g>
			<rect x="0" y="574.451" width="113.386" height="35.2279" class="st3"/>
			<text x="8.69" y="595.71" class="st4" v:langID="2052"><v:paragraph v:horizAlign="1"/><v:tabList/>合闸母线电压过低</text>		</g>
		<g id="shape68-152" v:mID="68" v:groupContext="shape" v:layerMember="0" transform="translate(431.56,-435.92)">
			<title>动态连接线.125</title>
			<path d="M7.09 609.68 L-17.29 609.68 L-17.29 674.17 L0.05 674.17" class="st6"/>
		</g>
		<g id="shape69-157" v:mID="69" v:groupContext="shape" v:layerMember="0" transform="translate(424.474,-508.101)">
			<title>动态连接线.127</title>
			<path d="M0 609.68 L-10.2 609.68 L-10.2 681.86 L7.13 681.86" class="st6"/>
		</g>
		<g id="shape70-162" v:mID="70" v:groupContext="shape" v:layerMember="0" transform="translate(141.423,-490.739)">
			<title>动态连接线.227</title>
			<path d="M0 609.68 L0 623.5 L-103.42 623.5 L-103.42 967.52 L-64.56 967.52" class="st6"/>
		</g>
		<g id="shape71-167" v:mID="71" v:groupContext="shape" v:layerMember="0" transform="translate(141.423,-490.739)">
			<title>动态连接线.228</title>
			<path d="M0 609.68 L0 623.5 L-103.42 623.5 L-103.42 898.78 L-64.56 898.78" class="st6"/>
		</g>
		<g id="shape72-172" v:mID="72" v:groupContext="shape" v:layerMember="0" transform="translate(141.423,-490.739)">
			<title>动态连接线.231</title>
			<path d="M0 609.68 L0 623.5 L-103.42 623.5 L-103.42 1043.72 L-64.56 1043.72" class="st6"/>
		</g>
		<g id="shape73-177" v:mID="73" v:groupContext="shape" transform="translate(438.647,-291.456)">
			<title>矩形.232</title>
			<desc>合闸线路电压过高或过低导致断路器失灵</desc>
			<v:userDefs>
				<v:ud v:nameU="visVersion" v:val="VT0(15):26"/>
			</v:userDefs>
			<v:textBlock v:margins="rect(4,4,4,4)" v:tabSpace="42.5197"/>
			<v:textRect cx="56.6929" cy="587.207" width="113.39" height="44.9441"/>
			<g id="shadow73-178" v:groupContext="shadow" v:shadowOffsetX="1.22561E-16" v:shadowOffsetY="-2.00157" v:shadowType="1"
					transform="matrix(1,0,0,1,0,2.00157)" class="st1">
				<rect x="0" y="564.735" width="113.386" height="44.9441" class="st2"/>
			</g>
			<rect x="0" y="564.735" width="113.386" height="44.9441" class="st3"/>
			<text x="8.69" y="576.31" class="st4" v:langID="2052"><v:paragraph v:horizAlign="1"/><v:tabList/>合闸线路电压过高<tspan
						x="8.69" dy="1.2em" class="st5">或过低导致断路器</tspan><tspan x="44.69" dy="1.212em" class="st5">失灵</tspan></text>		</g>
		<g id="shape74-185" v:mID="74" v:groupContext="shape" v:layerMember="0" transform="translate(424.474,-508.101)">
			<title>动态连接线.233</title>
			<path d="M0 609.68 L-10.2 609.68 L-10.2 803.85 L7.13 803.85" class="st6"/>
		</g>
		<g id="shape75-190" v:mID="75" v:groupContext="shape" transform="translate(438.647,-233.14)">
			<title>矩形.234</title>
			<desc>合闸操作元件接触不良、操作机械中接口端接触不良</desc>
			<v:userDefs>
				<v:ud v:nameU="visVersion" v:val="VT0(15):26"/>
			</v:userDefs>
			<v:textBlock v:margins="rect(4,4,4,4)" v:tabSpace="42.5197"/>
			<v:textRect cx="56.6929" cy="587.207" width="113.39" height="44.9441"/>
			<g id="shadow75-191" v:groupContext="shadow" v:shadowOffsetX="1.22561E-16" v:shadowOffsetY="-2.00157" v:shadowType="1"
					transform="matrix(1,0,0,1,0,2.00157)" class="st1">
				<rect x="0" y="564.735" width="113.386" height="44.9441" class="st2"/>
			</g>
			<rect x="0" y="564.735" width="113.386" height="44.9441" class="st3"/>
			<text x="8.69" y="576.31" class="st4" v:langID="2052"><v:paragraph v:horizAlign="1"/><v:tabList/>合闸操作元件接触<tspan
						x="8.69" dy="1.2em" class="st5">不良</tspan>、操作机械中<tspan x="14.69" dy="1.212em" class="st5">接口端接触不良</tspan></text>		</g>
		<g id="shape76-198" v:mID="76" v:groupContext="shape" transform="translate(439.06,-175.776)">
			<title>矩形.235</title>
			<desc>合闸接触器的线圈断线</desc>
			<v:userDefs>
				<v:ud v:nameU="visVersion" v:val="VT0(15):26"/>
			</v:userDefs>
			<v:textBlock v:margins="rect(4,4,4,4)" v:tabSpace="42.5197"/>
			<v:textRect cx="56.6929" cy="587.207" width="113.39" height="44.9441"/>
			<g id="shadow76-199" v:groupContext="shadow" v:shadowOffsetX="1.22561E-16" v:shadowOffsetY="-2.00157" v:shadowType="1"
					transform="matrix(1,0,0,1,0,2.00157)" class="st1">
				<rect x="0" y="564.735" width="113.386" height="44.9441" class="st2"/>
			</g>
			<rect x="0" y="564.735" width="113.386" height="44.9441" class="st3"/>
			<text x="8.69" y="583.51" class="st4" v:langID="2052"><v:paragraph v:horizAlign="1"/><v:tabList/>合闸接触器的线圈<tspan
						x="44.69" dy="1.212em" class="st5">断线</tspan></text>		</g>
		<g id="shape77-205" v:mID="77" v:groupContext="shape" v:layerMember="0" transform="translate(424.474,-508.101)">
			<title>动态连接线.236</title>
			<path d="M0 609.68 L-10.2 609.68 L-10.2 862.17 L7.13 862.17" class="st6"/>
		</g>
		<g id="shape78-210" v:mID="78" v:groupContext="shape" v:layerMember="0" transform="translate(424.474,-508.101)">
			<title>动态连接线.237</title>
			<path d="M0 609.68 L-9.79 609.68 L-9.79 919.53 L7.55 919.53" class="st6"/>
		</g>
	</g>
</svg>
