<?xml version="1.0" encoding="UTF-8" standalone="no"?>
<!DOCTYPE svg PUBLIC "-//W3C//DTD SVG 1.1//EN" "http://www.w3.org/Graphics/SVG/1.1/DTD/svg11.dtd">
<!-- 由 Microsoft Visio, SVG Export 生成 绘图2.svg Page-1 -->
<svg xmlns="http://www.w3.org/2000/svg" xmlns:xlink="http://www.w3.org/1999/xlink" xmlns:ev="http://www.w3.org/2001/xml-events"
		xmlns:v="http://schemas.microsoft.com/visio/2003/SVGExtensions/" width="11.4179in" height="8.09309in"
		viewBox="0 0 822.092 582.703" xml:space="preserve" color-interpolation-filters="sRGB" class="st8">
	<v:documentProperties v:langID="2052" v:metric="true" v:viewMarkup="false">
		<v:userDefs>
			<v:ud v:nameU="msvSubprocessMaster" v:prompt="" v:val="VT4(Rectangle)"/>
			<v:ud v:nameU="msvNoAutoConnect" v:val="VT0(1):26"/>
		</v:userDefs>
	</v:documentProperties>

	<style type="text/css">
	<![CDATA[
		.st1 {visibility:visible}
		.st2 {fill:#a5a5a5;fill-opacity:0.6;filter:url(#filter_2);stroke:#a5a5a5;stroke-linecap:round;stroke-linejoin:round;stroke-opacity:0.6}
		.st3 {fill:#e2e6da;stroke:#f1e0b2;stroke-linecap:round;stroke-linejoin:round;stroke-opacity:0.6;stroke-width:0.75}
		.st4 {fill:#000000;font-family:微软雅黑;font-size:1.00001em}
		.st5 {font-size:1em}
		.st6 {marker-end:url(#mrkr4-151);stroke:#82982a;stroke-linecap:round;stroke-linejoin:round;stroke-width:1}
		.st7 {fill:#82982a;fill-opacity:1;stroke:#82982a;stroke-opacity:1;stroke-width:0.28409090909091}
		.st8 {fill:none;fill-rule:evenodd;font-size:12px;overflow:visible;stroke-linecap:square;stroke-miterlimit:3}
	]]>
	</style>

	<defs id="Markers">
		<g id="lend4">
			<path d="M 2 1 L 0 0 L 2 -1 L 2 1 " style="stroke:none"/>
		</g>
		<marker id="mrkr4-151" class="st7" v:arrowType="4" v:arrowSize="2" v:setback="7.04" refX="-7.04" orient="auto"
				markerUnits="strokeWidth" overflow="visible">
			<use xlink:href="#lend4" transform="scale(-3.52,-3.52) "/>
		</marker>
	</defs>
	<defs id="Filters">
		<filter id="filter_2">
			<feGaussianBlur stdDeviation="2"/>
		</filter>
	</defs>
	<g v:mID="0" v:index="1" v:groupContext="foregroundPage">
		<v:userDefs>
			<v:ud v:nameU="msvThemeOrder" v:val="VT0(0):26"/>
		</v:userDefs>
		<title>页-1</title>
		<v:pageProperties v:drawingScale="0.0393701" v:pageScale="0.0393701" v:drawingUnits="24" v:shadowOffsetX="8.50394"
				v:shadowOffsetY="-8.50394"/>
		<v:layer v:name="连接线" v:index="0"/>
		<g id="shape122-1" v:mID="122" v:groupContext="shape" transform="translate(437.135,-529.68)">
			<title>矩形.122</title>
			<desc>机械故障</desc>
			<v:userDefs>
				<v:ud v:nameU="visVersion" v:val="VT0(15):26"/>
			</v:userDefs>
			<v:textBlock v:margins="rect(4,4,4,4)" v:tabSpace="42.5197"/>
			<v:textRect cx="67.299" cy="565.878" width="134.6" height="33.6495"/>
			<g id="shadow122-2" v:groupContext="shadow" v:shadowOffsetX="1.22561E-16" v:shadowOffsetY="-2.00157" v:shadowType="1"
					transform="matrix(1,0,0,1,0,2.00157)" class="st1">
				<rect x="0" y="549.053" width="134.598" height="33.6495" class="st2"/>
			</g>
			<rect x="0" y="549.053" width="134.598" height="33.6495" class="st3"/>
			<text x="43.3" y="569.53" class="st4" v:langID="2052"><v:paragraph v:horizAlign="1"/><v:tabList/>机械故障</text>		</g>
		<g id="shape123-7" v:mID="123" v:groupContext="shape" transform="translate(154.964,-452.34)">
			<title>矩形.123</title>
			<desc>操作机构</desc>
			<v:userDefs>
				<v:ud v:nameU="visVersion" v:val="VT0(15):26"/>
			</v:userDefs>
			<v:textBlock v:margins="rect(4,4,4,4)" v:tabSpace="42.5197"/>
			<v:textRect cx="67.299" cy="565.878" width="134.6" height="33.6495"/>
			<g id="shadow123-8" v:groupContext="shadow" v:shadowOffsetX="1.22561E-16" v:shadowOffsetY="-2.00157" v:shadowType="1"
					transform="matrix(1,0,0,1,0,2.00157)" class="st1">
				<rect x="0" y="549.053" width="134.598" height="33.6495" class="st2"/>
			</g>
			<rect x="0" y="549.053" width="134.598" height="33.6495" class="st3"/>
			<text x="43.3" y="569.53" class="st4" v:langID="2052"><v:paragraph v:horizAlign="1"/><v:tabList/>操作机构</text>		</g>
		<g id="shape124-13" v:mID="124" v:groupContext="shape" transform="translate(471.261,-453.657)">
			<title>矩形.124</title>
			<desc>传动系统</desc>
			<v:userDefs>
				<v:ud v:nameU="visVersion" v:val="VT0(15):26"/>
			</v:userDefs>
			<v:textBlock v:margins="rect(4,4,4,4)" v:tabSpace="42.5197"/>
			<v:textRect cx="67.299" cy="565.878" width="134.6" height="33.6495"/>
			<g id="shadow124-14" v:groupContext="shadow" v:shadowOffsetX="1.22561E-16" v:shadowOffsetY="-2.00157" v:shadowType="1"
					transform="matrix(1,0,0,1,0,2.00157)" class="st1">
				<rect x="0" y="549.053" width="134.598" height="33.6495" class="st2"/>
			</g>
			<rect x="0" y="549.053" width="134.598" height="33.6495" class="st3"/>
			<text x="43.3" y="569.53" class="st4" v:langID="2052"><v:paragraph v:horizAlign="1"/><v:tabList/>传动系统</text>		</g>
		<g id="shape125-19" v:mID="125" v:groupContext="shape" transform="translate(666.119,-451.549)">
			<title>矩形.125</title>
			<desc>机械设备疲劳</desc>
			<v:userDefs>
				<v:ud v:nameU="visVersion" v:val="VT0(15):26"/>
			</v:userDefs>
			<v:textBlock v:margins="rect(4,4,4,4)" v:tabSpace="42.5197"/>
			<v:textRect cx="67.299" cy="565.878" width="134.6" height="33.6495"/>
			<g id="shadow125-20" v:groupContext="shadow" v:shadowOffsetX="1.22561E-16" v:shadowOffsetY="-2.00157" v:shadowType="1"
					transform="matrix(1,0,0,1,0,2.00157)" class="st1">
				<rect x="0" y="549.053" width="134.598" height="33.6495" class="st2"/>
			</g>
			<rect x="0" y="549.053" width="134.598" height="33.6495" class="st3"/>
			<text x="31.3" y="569.53" class="st4" v:langID="2052"><v:paragraph v:horizAlign="1"/><v:tabList/>机械设备疲劳</text>		</g>
		<g id="shape126-25" v:mID="126" v:groupContext="shape" transform="translate(61.9114,-345.517)">
			<title>矩形.5</title>
			<desc>拒合</desc>
			<v:userDefs>
				<v:ud v:nameU="visVersion" v:val="VT0(15):26"/>
			</v:userDefs>
			<v:textBlock v:margins="rect(4,4,4,4)" v:tabSpace="42.5197"/>
			<v:textRect cx="33.6495" cy="553.259" width="67.3" height="58.8866"/>
			<g id="shadow126-26" v:groupContext="shadow" v:shadowOffsetX="1.22561E-16" v:shadowOffsetY="-2.00157" v:shadowType="1"
					transform="matrix(1,0,0,1,0,2.00157)" class="st1">
				<rect x="0" y="523.816" width="67.299" height="58.8866" class="st2"/>
			</g>
			<rect x="0" y="523.816" width="67.299" height="58.8866" class="st3"/>
			<text x="21.65" y="556.91" class="st4" v:langID="2052"><v:paragraph v:horizAlign="1"/><v:tabList/>拒合</text>		</g>
		<g id="shape127-31" v:mID="127" v:groupContext="shape" transform="translate(188.613,-345.557)">
			<title>矩形.6</title>
			<desc>拒分</desc>
			<v:userDefs>
				<v:ud v:nameU="visVersion" v:val="VT0(15):26"/>
			</v:userDefs>
			<v:textBlock v:margins="rect(4,4,4,4)" v:tabSpace="42.5197"/>
			<v:textRect cx="33.6495" cy="553.259" width="67.3" height="58.8866"/>
			<g id="shadow127-32" v:groupContext="shadow" v:shadowOffsetX="1.22561E-16" v:shadowOffsetY="-2.00157" v:shadowType="1"
					transform="matrix(1,0,0,1,0,2.00157)" class="st1">
				<rect x="0" y="523.816" width="67.299" height="58.8866" class="st2"/>
			</g>
			<rect x="0" y="523.816" width="67.299" height="58.8866" class="st3"/>
			<text x="21.65" y="556.91" class="st4" v:langID="2052"><v:paragraph v:horizAlign="1"/><v:tabList/>拒分</text>		</g>
		<g id="shape128-37" v:mID="128" v:groupContext="shape" transform="translate(322.873,-342.993)">
			<title>矩形.7</title>
			<desc>误跳闸</desc>
			<v:userDefs>
				<v:ud v:nameU="visVersion" v:val="VT0(15):26"/>
			</v:userDefs>
			<v:textBlock v:margins="rect(4,4,4,4)" v:tabSpace="42.5197"/>
			<v:textRect cx="33.6495" cy="551.997" width="67.3" height="61.4103"/>
			<g id="shadow128-38" v:groupContext="shadow" v:shadowOffsetX="1.22561E-16" v:shadowOffsetY="-2.00157" v:shadowType="1"
					transform="matrix(1,0,0,1,0,2.00157)" class="st1">
				<rect x="0" y="521.292" width="67.299" height="61.4103" class="st2"/>
			</g>
			<rect x="0" y="521.292" width="67.299" height="61.4103" class="st3"/>
			<text x="15.65" y="555.65" class="st4" v:langID="2052"><v:paragraph v:horizAlign="1"/><v:tabList/>误跳闸</text>		</g>
		<g id="shape129-43" v:mID="129" v:groupContext="shape" transform="translate(488.085,-371.254)">
			<title>矩形.8</title>
			<desc>储能电机无法转动</desc>
			<v:userDefs>
				<v:ud v:nameU="visVersion" v:val="VT0(15):26"/>
			</v:userDefs>
			<v:textBlock v:margins="rect(4,4,4,4)" v:tabSpace="42.5197"/>
			<v:textRect cx="50.4742" cy="553.259" width="100.95" height="58.8866"/>
			<g id="shadow129-44" v:groupContext="shadow" v:shadowOffsetX="1.22561E-16" v:shadowOffsetY="-2.00157" v:shadowType="1"
					transform="matrix(1,0,0,1,0,2.00157)" class="st1">
				<rect x="0" y="523.816" width="100.948" height="58.8866" class="st2"/>
			</g>
			<rect x="0" y="523.816" width="100.948" height="58.8866" class="st3"/>
			<text x="8.47" y="549.56" class="st4" v:langID="2052"><v:paragraph v:horizAlign="1"/><v:tabList/>储能电机无法转<tspan
						x="44.47" dy="1.212em" class="st5">动</tspan></text>		</g>
		<g id="shape130-50" v:mID="130" v:groupContext="shape" transform="translate(488.085,-300.208)">
			<title>矩形.9</title>
			<desc>电机不停转动但弹簧不储能</desc>
			<v:userDefs>
				<v:ud v:nameU="visVersion" v:val="VT0(15):26"/>
			</v:userDefs>
			<v:textBlock v:margins="rect(4,4,4,4)" v:tabSpace="42.5197"/>
			<v:textRect cx="50.4742" cy="553.259" width="100.95" height="58.8866"/>
			<g id="shadow130-51" v:groupContext="shadow" v:shadowOffsetX="1.22561E-16" v:shadowOffsetY="-2.00157" v:shadowType="1"
					transform="matrix(1,0,0,1,0,2.00157)" class="st1">
				<rect x="0" y="523.816" width="100.948" height="58.8866" class="st2"/>
			</g>
			<rect x="0" y="523.816" width="100.948" height="58.8866" class="st3"/>
			<text x="8.47" y="549.56" class="st4" v:langID="2052"><v:paragraph v:horizAlign="1"/><v:tabList/>电机不停转动，<tspan
						x="14.47" dy="1.212em" class="st5">但弹簧不储能</tspan></text>		</g>
		<g id="shape131-57" v:mID="131" v:groupContext="shape" transform="translate(488.085,-233.049)">
			<title>矩形.12</title>
			<desc>油泵频繁启动打压</desc>
			<v:userDefs>
				<v:ud v:nameU="visVersion" v:val="VT0(15):26"/>
			</v:userDefs>
			<v:textBlock v:margins="rect(4,4,4,4)" v:tabSpace="42.5197"/>
			<v:textRect cx="50.4742" cy="553.259" width="100.95" height="58.8866"/>
			<g id="shadow131-58" v:groupContext="shadow" v:shadowOffsetX="1.22561E-16" v:shadowOffsetY="-2.00157" v:shadowType="1"
					transform="matrix(1,0,0,1,0,2.00157)" class="st1">
				<rect x="0" y="523.816" width="100.948" height="58.8866" class="st2"/>
			</g>
			<rect x="0" y="523.816" width="100.948" height="58.8866" class="st3"/>
			<text x="8.47" y="549.56" class="st4" v:langID="2052"><v:paragraph v:horizAlign="1"/><v:tabList/>油泵频繁启动打<tspan
						x="44.47" dy="1.212em" class="st5">压</tspan></text>		</g>
		<g id="shape132-64" v:mID="132" v:groupContext="shape" transform="translate(488.085,-156.093)">
			<title>矩形.132</title>
			<desc>液压操作机构泄漏</desc>
			<v:userDefs>
				<v:ud v:nameU="visVersion" v:val="VT0(15):26"/>
			</v:userDefs>
			<v:textBlock v:margins="rect(4,4,4,4)" v:tabSpace="42.5197"/>
			<v:textRect cx="50.4742" cy="553.259" width="100.95" height="58.8866"/>
			<g id="shadow132-65" v:groupContext="shadow" v:shadowOffsetX="1.22561E-16" v:shadowOffsetY="-2.00157" v:shadowType="1"
					transform="matrix(1,0,0,1,0,2.00157)" class="st1">
				<rect x="0" y="523.816" width="100.948" height="58.8866" class="st2"/>
			</g>
			<rect x="0" y="523.816" width="100.948" height="58.8866" class="st3"/>
			<text x="8.47" y="549.56" class="st4" v:langID="2052"><v:paragraph v:horizAlign="1"/><v:tabList/>液压操作机构泄<tspan
						x="44.47" dy="1.212em" class="st5">漏</tspan></text>		</g>
		<g id="shape133-71" v:mID="133" v:groupContext="shape" transform="translate(45.0866,-183.807)">
			<title>矩形.29</title>
			<desc>操作不当导致断路器把手返回过早</desc>
			<v:userDefs>
				<v:ud v:nameU="visVersion" v:val="VT0(15):26"/>
			</v:userDefs>
			<v:textBlock v:margins="rect(4,4,4,4)" v:tabSpace="42.5197"/>
			<v:textRect cx="50.4742" cy="553.259" width="100.95" height="58.8866"/>
			<g id="shadow133-72" v:groupContext="shadow" v:shadowOffsetX="1.22561E-16" v:shadowOffsetY="-2.00157" v:shadowType="1"
					transform="matrix(1,0,0,1,0,2.00157)" class="st1">
				<rect x="0" y="523.816" width="100.948" height="58.8866" class="st2"/>
			</g>
			<rect x="0" y="523.816" width="100.948" height="58.8866" class="st3"/>
			<text x="8.47" y="542.36" class="st4" v:langID="2052"><v:paragraph v:horizAlign="1"/><v:tabList/>操作不当，导致<tspan x="8.47"
						dy="1.2em" class="st5">断路器把手返回</tspan><tspan x="38.47" dy="1.212em" class="st5">过早</tspan></text>		</g>
		<g id="shape134-79" v:mID="134" v:groupContext="shape" transform="translate(45.0866,-104.213)">
			<title>矩形.30</title>
			<desc>控制回路电源不正常</desc>
			<v:userDefs>
				<v:ud v:nameU="visVersion" v:val="VT0(15):26"/>
			</v:userDefs>
			<v:textBlock v:margins="rect(4,4,4,4)" v:tabSpace="42.5197"/>
			<v:textRect cx="50.4742" cy="553.259" width="100.95" height="58.8866"/>
			<g id="shadow134-80" v:groupContext="shadow" v:shadowOffsetX="1.22561E-16" v:shadowOffsetY="-2.00157" v:shadowType="1"
					transform="matrix(1,0,0,1,0,2.00157)" class="st1">
				<rect x="0" y="523.816" width="100.948" height="58.8866" class="st2"/>
			</g>
			<rect x="0" y="523.816" width="100.948" height="58.8866" class="st3"/>
			<text x="8.47" y="549.56" class="st4" v:langID="2052"><v:paragraph v:horizAlign="1"/><v:tabList/>控制回路电源不<tspan
						x="38.47" dy="1.212em" class="st5">正常</tspan></text>		</g>
		<g id="shape135-86" v:mID="135" v:groupContext="shape" transform="translate(45.0866,-263.4)">
			<title>矩形.31</title>
			<desc>控制回路不正常</desc>
			<v:userDefs>
				<v:ud v:nameU="visVersion" v:val="VT0(15):26"/>
			</v:userDefs>
			<v:textBlock v:margins="rect(4,4,4,4)" v:tabSpace="42.5197"/>
			<v:textRect cx="50.4742" cy="551.997" width="100.95" height="61.4103"/>
			<g id="shadow135-87" v:groupContext="shadow" v:shadowOffsetX="1.22561E-16" v:shadowOffsetY="-2.00157" v:shadowType="1"
					transform="matrix(1,0,0,1,0,2.00157)" class="st1">
				<rect x="0" y="521.292" width="100.948" height="61.4103" class="st2"/>
			</g>
			<rect x="0" y="521.292" width="100.948" height="61.4103" class="st3"/>
			<text x="8.47" y="555.65" class="st4" v:langID="2052"><v:paragraph v:horizAlign="1"/><v:tabList/>控制回路不正常</text>		</g>
		<g id="shape136-92" v:mID="136" v:groupContext="shape" transform="translate(171.789,-268.914)">
			<title>矩形.59</title>
			<desc>控制回路故障</desc>
			<v:userDefs>
				<v:ud v:nameU="visVersion" v:val="VT0(15):26"/>
			</v:userDefs>
			<v:textBlock v:margins="rect(4,4,4,4)" v:tabSpace="42.5197"/>
			<v:textRect cx="50.4742" cy="553.259" width="100.95" height="58.8866"/>
			<g id="shadow136-93" v:groupContext="shadow" v:shadowOffsetX="1.22561E-16" v:shadowOffsetY="-2.00157" v:shadowType="1"
					transform="matrix(1,0,0,1,0,2.00157)" class="st1">
				<rect x="0" y="523.816" width="100.948" height="58.8866" class="st2"/>
			</g>
			<rect x="0" y="523.816" width="100.948" height="58.8866" class="st3"/>
			<text x="14.47" y="556.91" class="st4" v:langID="2052"><v:paragraph v:horizAlign="1"/><v:tabList/>控制回路故障</text>		</g>
		<g id="shape137-98" v:mID="137" v:groupContext="shape" transform="translate(171.789,-183.807)">
			<title>矩形.60</title>
			<desc>分闸电磁铁烧坏、脱落或卡涩</desc>
			<v:userDefs>
				<v:ud v:nameU="visVersion" v:val="VT0(15):26"/>
			</v:userDefs>
			<v:textBlock v:margins="rect(4,4,4,4)" v:tabSpace="42.5197"/>
			<v:textRect cx="50.4742" cy="553.259" width="100.95" height="58.8866"/>
			<g id="shadow137-99" v:groupContext="shadow" v:shadowOffsetX="1.22561E-16" v:shadowOffsetY="-2.00157" v:shadowType="1"
					transform="matrix(1,0,0,1,0,2.00157)" class="st1">
				<rect x="0" y="523.816" width="100.948" height="58.8866" class="st2"/>
			</g>
			<rect x="0" y="523.816" width="100.948" height="58.8866" class="st3"/>
			<text x="14.47" y="549.56" class="st4" v:langID="2052"><v:paragraph v:horizAlign="1"/><v:tabList/>分闸电磁铁烧<tspan x="8.47"
						dy="1.212em" class="st5">坏</tspan>、脱落或卡涩</text>		</g>
		<g id="shape138-105" v:mID="138" v:groupContext="shape" transform="translate(306.048,-268.914)">
			<title>矩形.74</title>
			<desc>二次回路人为误碰</desc>
			<v:userDefs>
				<v:ud v:nameU="visVersion" v:val="VT0(15):26"/>
			</v:userDefs>
			<v:textBlock v:margins="rect(4,4,4,4)" v:tabSpace="42.5197"/>
			<v:textRect cx="50.4742" cy="553.259" width="100.95" height="58.8866"/>
			<g id="shadow138-106" v:groupContext="shadow" v:shadowOffsetX="1.22561E-16" v:shadowOffsetY="-2.00157" v:shadowType="1"
					transform="matrix(1,0,0,1,0,2.00157)" class="st1">
				<rect x="0" y="523.816" width="100.948" height="58.8866" class="st2"/>
			</g>
			<rect x="0" y="523.816" width="100.948" height="58.8866" class="st3"/>
			<text x="8.47" y="549.56" class="st4" v:langID="2052"><v:paragraph v:horizAlign="1"/><v:tabList/>二次回路人为误<tspan
						x="44.47" dy="1.212em" class="st5">碰</tspan></text>		</g>
		<g id="shape139-112" v:mID="139" v:groupContext="shape" transform="translate(306.048,-183.589)">
			<title>矩形.75</title>
			<desc>操作机构自动脱口或机构其它异常</desc>
			<v:userDefs>
				<v:ud v:nameU="visVersion" v:val="VT0(15):26"/>
			</v:userDefs>
			<v:textBlock v:margins="rect(4,4,4,4)" v:tabSpace="42.5197"/>
			<v:textRect cx="50.4742" cy="553.259" width="100.95" height="58.8866"/>
			<g id="shadow139-113" v:groupContext="shadow" v:shadowOffsetX="1.22561E-16" v:shadowOffsetY="-2.00157" v:shadowType="1"
					transform="matrix(1,0,0,1,0,2.00157)" class="st1">
				<rect x="0" y="523.816" width="100.948" height="58.8866" class="st2"/>
			</g>
			<rect x="0" y="523.816" width="100.948" height="58.8866" class="st3"/>
			<text x="8.47" y="542.36" class="st4" v:langID="2052"><v:paragraph v:horizAlign="1"/><v:tabList/>操作机构自动脱<tspan x="8.47"
						dy="1.2em" class="st5">口或机构其它异</tspan><tspan x="44.47" dy="1.212em" class="st5">常</tspan></text>		</g>
		<g id="shape140-120" v:mID="140" v:groupContext="shape" transform="translate(306.048,-103.483)">
			<title>矩形.79</title>
			<desc>二次回路故障</desc>
			<v:userDefs>
				<v:ud v:nameU="visVersion" v:val="VT0(15):26"/>
			</v:userDefs>
			<v:textBlock v:margins="rect(4,4,4,4)" v:tabSpace="42.5197"/>
			<v:textRect cx="50.4742" cy="553.259" width="100.95" height="58.8866"/>
			<g id="shadow140-121" v:groupContext="shadow" v:shadowOffsetX="1.22561E-16" v:shadowOffsetY="-2.00157" v:shadowType="1"
					transform="matrix(1,0,0,1,0,2.00157)" class="st1">
				<rect x="0" y="523.816" width="100.948" height="58.8866" class="st2"/>
			</g>
			<rect x="0" y="523.816" width="100.948" height="58.8866" class="st3"/>
			<text x="14.47" y="556.91" class="st4" v:langID="2052"><v:paragraph v:horizAlign="1"/><v:tabList/>二次回路故障</text>		</g>
		<g id="shape141-126" v:mID="141" v:groupContext="shape" transform="translate(306.048,-23.3766)">
			<title>矩形.80</title>
			<desc>保护装置误动</desc>
			<v:userDefs>
				<v:ud v:nameU="visVersion" v:val="VT0(15):26"/>
			</v:userDefs>
			<v:textBlock v:margins="rect(4,4,4,4)" v:tabSpace="42.5197"/>
			<v:textRect cx="50.4742" cy="553.259" width="100.95" height="58.8866"/>
			<g id="shadow141-127" v:groupContext="shadow" v:shadowOffsetX="1.22561E-16" v:shadowOffsetY="-2.00157" v:shadowType="1"
					transform="matrix(1,0,0,1,0,2.00157)" class="st1">
				<rect x="0" y="523.816" width="100.948" height="58.8866" class="st2"/>
			</g>
			<rect x="0" y="523.816" width="100.948" height="58.8866" class="st3"/>
			<text x="14.47" y="556.91" class="st4" v:langID="2052"><v:paragraph v:horizAlign="1"/><v:tabList/>保护装置误动</text>		</g>
		<g id="shape142-132" v:mID="142" v:groupContext="shape" transform="translate(682.943,-348.394)">
			<title>矩形.142</title>
			<desc>断路器动静触点打开相对较早</desc>
			<v:userDefs>
				<v:ud v:nameU="visVersion" v:val="VT0(15):26"/>
			</v:userDefs>
			<v:textBlock v:margins="rect(4,4,4,4)" v:tabSpace="42.5197"/>
			<v:textRect cx="58.8866" cy="553.259" width="117.78" height="58.8866"/>
			<g id="shadow142-133" v:groupContext="shadow" v:shadowOffsetX="1.22561E-16" v:shadowOffsetY="-2.00157" v:shadowType="1"
					transform="matrix(1,0,0,1,0,2.00157)" class="st1">
				<rect x="0" y="523.816" width="117.773" height="58.8866" class="st2"/>
			</g>
			<rect x="0" y="523.816" width="117.773" height="58.8866" class="st3"/>
			<text x="4.89" y="549.56" class="st4" v:langID="2052"><v:paragraph v:horizAlign="1"/><v:tabList/>断路器动静触点打开<tspan
						x="34.89" dy="1.212em" class="st5">相对较早</tspan></text>		</g>
		<g id="shape143-139" v:mID="143" v:groupContext="shape" transform="translate(682.943,-243.239)">
			<title>矩形.143</title>
			<desc>传动过程使用次数过多使得线圈过热</desc>
			<v:userDefs>
				<v:ud v:nameU="visVersion" v:val="VT0(15):26"/>
			</v:userDefs>
			<v:textBlock v:margins="rect(4,4,4,4)" v:tabSpace="42.5197"/>
			<v:textRect cx="58.8866" cy="547.614" width="117.78" height="70.1769"/>
			<g id="shadow143-140" v:groupContext="shadow" v:shadowOffsetX="1.22561E-16" v:shadowOffsetY="-2.00157" v:shadowType="1"
					transform="matrix(1,0,0,1,0,2.00157)" class="st1">
				<rect x="0" y="512.526" width="117.773" height="70.1769" class="st2"/>
			</g>
			<rect x="0" y="512.526" width="117.773" height="70.1769" class="st3"/>
			<text x="4.89" y="543.92" class="st4" v:langID="2052"><v:paragraph v:horizAlign="1"/><v:tabList/>传动过程使用次数过<tspan
						x="10.89" dy="1.212em" class="st5">多</tspan>，使得线圈过热</text>		</g>
		<g id="shape145-146" v:mID="145" v:groupContext="shape" v:layerMember="0" transform="translate(95.5608,-345.517)">
			<title>动态连接线.138</title>
			<path d="M0 582.7 L0 596.32 L-57.56 596.32 L-57.56 634.11 L-57.51 634.11" class="st6"/>
		</g>
		<g id="shape146-152" v:mID="146" v:groupContext="shape" v:layerMember="0" transform="translate(95.5608,-345.517)">
			<title>动态连接线.139</title>
			<path d="M0 582.7 L0 596.32 L-57.56 596.32 L-57.56 714.97 L-57.51 714.97" class="st6"/>
		</g>
		<g id="shape147-157" v:mID="147" v:groupContext="shape" v:layerMember="0" transform="translate(95.5608,-345.517)">
			<title>动态连接线.140</title>
			<path d="M0 582.7 L0 596.32 L-57.56 596.32 L-57.56 794.56 L-57.51 794.56" class="st6"/>
		</g>
		<g id="shape148-162" v:mID="148" v:groupContext="shape" v:layerMember="0" transform="translate(164.702,-213.25)">
			<title>动态连接线.142</title>
			<path d="M7.09 582.7 L-3.54 582.7 L-3.54 497.6 L0.05 497.6" class="st6"/>
		</g>
		<g id="shape149-167" v:mID="149" v:groupContext="shape" v:layerMember="0" transform="translate(188.613,-375)">
			<title>动态连接线.143</title>
			<path d="M0 582.7 L-27.45 582.7 L-27.45 659.35 L-23.86 659.35" class="st6"/>
		</g>
		<g id="shape150-172" v:mID="150" v:groupContext="shape" v:layerMember="0" transform="translate(322.873,-373.698)">
			<title>动态连接线.145</title>
			<path d="M0 582.7 L-27.45 582.7 L-27.45 658.04 L-23.86 658.04" class="st6"/>
		</g>
		<g id="shape151-177" v:mID="151" v:groupContext="shape" v:layerMember="0" transform="translate(666.119,-468.374)">
			<title>动态连接线.150</title>
			<path d="M0 582.7 L-13.92 582.7 L-13.92 772.75 L9.78 772.75" class="st6"/>
		</g>
		<g id="shape152-182" v:mID="152" v:groupContext="shape" v:layerMember="0" transform="translate(471.261,-470.481)">
			<title>动态连接线.151</title>
			<path d="M0 582.7 L-10.63 582.7 L-10.63 652.49 L9.78 652.49" class="st6"/>
		</g>
		<g id="shape153-187" v:mID="153" v:groupContext="shape" v:layerMember="0" transform="translate(471.261,-470.481)">
			<title>动态连接线.152</title>
			<path d="M0 582.7 L-10.63 582.7 L-10.63 723.53 L9.78 723.53" class="st6"/>
		</g>
		<g id="shape154-192" v:mID="154" v:groupContext="shape" v:layerMember="0" transform="translate(471.261,-470.481)">
			<title>动态连接线.153</title>
			<path d="M0 582.7 L-10.63 582.7 L-10.63 790.69 L9.78 790.69" class="st6"/>
		</g>
		<g id="shape155-197" v:mID="155" v:groupContext="shape" v:layerMember="0" transform="translate(471.261,-470.481)">
			<title>动态连接线.154</title>
			<path d="M0 582.7 L-10.63 582.7 L-10.63 867.65 L9.78 867.65" class="st6"/>
		</g>
		<g id="shape156-202" v:mID="156" v:groupContext="shape" v:layerMember="0" transform="translate(504.434,-529.68)">
			<title>动态连接线.156</title>
			<path d="M0 582.7 L0 593.33 L-282.17 593.33 L-282.17 619.35" class="st6"/>
		</g>
		<g id="shape157-207" v:mID="157" v:groupContext="shape" v:layerMember="0" transform="translate(504.434,-529.68)">
			<title>动态连接线.45</title>
			<path d="M0 582.7 L0 593.33 L34.13 593.33 L34.13 618.04" class="st6"/>
		</g>
		<g id="shape158-212" v:mID="158" v:groupContext="shape" v:layerMember="0" transform="translate(504.434,-529.68)">
			<title>动态连接线.46</title>
			<path d="M0 582.7 L0 593.33 L228.98 593.33 L228.98 620.14" class="st6"/>
		</g>
		<g id="shape159-217" v:mID="159" v:groupContext="shape" v:layerMember="0" transform="translate(322.873,-373.698)">
			<title>动态连接线.48</title>
			<path d="M0 582.7 L-27.45 582.7 L-27.45 743.37 L-23.86 743.37" class="st6"/>
		</g>
		<g id="shape160-222" v:mID="160" v:groupContext="shape" v:layerMember="0" transform="translate(322.873,-373.698)">
			<title>动态连接线.49</title>
			<path d="M0 582.7 L-27.45 582.7 L-27.45 823.47 L-23.86 823.47" class="st6"/>
		</g>
		<g id="shape161-227" v:mID="161" v:groupContext="shape" v:layerMember="0" transform="translate(322.873,-373.698)">
			<title>动态连接线.50</title>
			<path d="M0 582.7 L-27.45 582.7 L-27.45 903.58 L-23.86 903.58" class="st6"/>
		</g>
		<g id="shape162-232" v:mID="162" v:groupContext="shape" v:layerMember="0" transform="translate(215.176,-452.34)">
			<title>动态连接线.51</title>
			<path d="M7.09 582.7 L7.09 623.56" class="st6"/>
		</g>
		<g id="shape163-237" v:mID="163" v:groupContext="shape" v:layerMember="0" transform="translate(222.263,-452.34)">
			<title>动态连接线.52</title>
			<path d="M0 582.7 L0 604.55 L-126.7 604.55 L-126.7 623.6" class="st6"/>
		</g>
		<g id="shape164-242" v:mID="164" v:groupContext="shape" v:layerMember="0" transform="translate(222.263,-452.34)">
			<title>动态连接线.53</title>
			<path d="M0 582.7 L0 603.79 L134.26 603.79 L134.26 623.6" class="st6"/>
		</g>
		<g id="shape165-247" v:mID="165" v:groupContext="shape" v:layerMember="0" transform="translate(666.119,-468.374)">
			<title>动态连接线.165</title>
			<path d="M0 582.7 L-13.92 582.7 L-13.92 673.24 L9.78 673.24" class="st6"/>
		</g>
	</g>
</svg>
